:SAMPLES-PER-SECOND 30
:FULLY-SPECIFIED
:DEGREES
83
root  -39.7081 35.6109 -27.438 -107.042 -83.8833 147.058
RightUpLeg  -85.4256 -18.5319 30.9737
RightLeg  47.513 -0.322275 -0.722411
RightFoot  -7.10287 0.607474 -17.5393
RightToes  0.000482159 0.542163 -0.142577
Spine  69.0167 -4.38088 8.75071
Spine1  2.68637 2.18633 -5.16359
HEad  -34.8562 -12.3739 6.07701
LeftShoulder1  7.27703 -27.5595 -16.5151
LeftArm  -75.9366 -68.0411 27.4546
LeftForeArm  -9.35099 -6.8819 -1.34395
LeftHand  -0.25398 0.0180481 5.50724
RightShoulder  1.48107 16.1609 -1.00718
RightArm  -65.943 47.3596 -23.5017
RightForeArm  -22.3663 -1.05556 0.170192
RightHand  0.056026 7.7725 0.0200089
LeftUpLeg  -80.7124 16.1614 -22.9607
LeftLeg  46.1002 -1.05091 -0.749701
LeftFoot  -7.28455 -0.144016 5.30456
LeftToes  1.06247e-005 4.65855e-005 -8.18504e-006
84
root  -39.8352 35.6226 -27.5088 -104.896 -84.0449 145.176
RightUpLeg  -85.8548 -18.9266 31.8454
RightLeg  47.6917 -0.286685 -0.68438
RightFoot  -7.35704 0.573199 -17.7267
RightToes  0.000482159 0.542163 -0.142577
Spine  69.5164 -4.40821 8.38005
Spine1  2.96178 1.96857 -4.97471
HEad  -35.0053 -11.6706 5.99792
LeftShoulder1  7.16657 -27.2581 -16.382
LeftArm  -77.6039 -68.2335 29.8561
LeftForeArm  -9.93581 -6.8093 -1.56214
LeftHand  -0.25398 0.0180481 5.50724
RightShoulder  1.31976 14.5281 -1.23959
RightArm  -71.2553 49.1035 -22.4096
RightForeArm  -20.793 0.672998 -1.09636
RightHand  0.0855693 8.03831 0.256622
LeftUpLeg  -80.8469 16.3551 -23.3093
LeftLeg  46.1033 -1.46481 -1.2104
LeftFoot  -7.42245 -0.135009 5.25006
LeftToes  1.06247e-005 4.65855e-005 -8.18504e-006
85
root  -39.9165 35.6523 -27.5489 -102.993 -84.2306 143.517
RightUpLeg  -86.1487 -19.2287 32.5406
RightLeg  47.6384 -0.285621 -0.681678
RightFoot  -7.5687 0.533959 -17.5888
RightToes  0.000482159 0.542163 -0.142577
Spine  69.7044 -4.48497 8.00527
Spine1  3.45274 1.64457 -4.70077
HEad  -35.3209 -10.7896 5.96957
LeftShoulder1  6.97877 -26.4866 -16.3711
LeftArm  -80.6757 -68.748 31.6302
LeftForeArm  -11.0637 -7.11099 -1.18781
LeftHand  -0.25398 0.0180481 5.50724
RightShoulder  1.2642 13.3861 -1.0479
RightArm  -74.8107 50.4027 -21.9669
RightForeArm  -19.7586 2.89529 -1.49885
RightHand  0.157874 8.58224 0.810271
LeftUpLeg  -80.9129 16.4848 -23.5685
LeftLeg  45.9714 -1.87825 -1.66163
LeftFoot  -7.56476 -0.12561 5.18966
LeftToes  1.06247e-005 4.65855e-005 -8.18504e-006
86
root  -39.9621 35.6925 -27.5619 -101.805 -84.4532 142.454
RightUpLeg  -86.2299 -19.5291 33.1566
RightLeg  47.3826 -0.228028 -0.60938
RightFoot  -7.68145 0.513522 -17.5226
RightToes  0.000482159 0.542163 -0.142577
Spine  69.7354 -4.58118 7.80543
Spine1  4.03556 1.3745 -4.41782
HEad  -35.8292 -10.0045 5.98543
LeftShoulder1  6.80056 -25.527 -16.5598
LeftArm  -84.1801 -69.3551 32.3529
LeftForeArm  -11.978 -8.05361 -0.438792
LeftHand  -0.25398 0.0180481 5.50724
RightShoulder  1.32735 13.0411 -0.436676
RightArm  -75.6911 50.7389 -23.0242
RightForeArm  -19.9977 4.32174 -1.05326
RightHand  0.332282 8.8468 2.20617
LeftUpLeg  -80.8915 16.6186 -23.7293
LeftLeg  45.7611 -2.20683 -2.00902
LeftFoot  -7.67054 -0.119489 5.1652
LeftToes  1.06247e-005 4.65855e-005 -8.18504e-006
87
root  -39.991 35.7298 -27.5471 -102.22 -84.5703 142.937
RightUpLeg  -86.1821 -19.7747 33.7492
RightLeg  46.9977 -0.0838789 -0.436585
RightFoot  -7.74354 0.511735 -17.7785
RightToes  0.000482159 0.542163 -0.142577
Spine  69.785 -4.69957 7.80033
Spine1  4.28786 1.29462 -4.46652
HEad  -36.3858 -9.46656 6.06976
LeftShoulder1  6.72477 -24.9028 -16.8399
LeftArm  -85.7567 -69.6212 32.0429
LeftForeArm  -12.4125 -9.20738 -0.0589778
LeftHand  -0.25398 0.0180481 5.50724
RightShoulder  1.38208 12.9429 -0.00225207
RightArm  -75.658 50.6253 -24.2856
RightForeArm  -20.2517 4.65565 -0.694068
RightHand  0.625673 8.38329 4.78241
LeftUpLeg  -80.9317 16.888 -24.0132
LeftLeg  45.591 -2.48784 -2.30268
LeftFoot  -7.68642 -0.120935 5.23978
LeftToes  1.06247e-005 4.65855e-005 -8.18504e-006
88
root  -40.0043 35.756 -27.516 -103.696 -84.4705 144.504
RightUpLeg  -86.1479 -19.8923 34.1924
RightLeg  46.6251 0.0622149 -0.266336
RightFoot  -7.91032 0.490565 -17.9732
RightToes  0.000482159 0.542163 -0.142577
Spine  69.7818 -4.78874 7.90453
Spine1  4.21385 1.34774 -4.80824
HEad  -36.8402 -9.11755 6.22727
LeftShoulder1  6.69581 -24.6451 -16.9682
LeftArm  -85.3688 -69.5646 31.5779
LeftForeArm  -12.7251 -9.86112 -0.21193
LeftHand  -0.25398 0.0180481 5.50724
RightShoulder  1.35342 12.7722 -0.101934
RightArm  -76.0795 50.4232 -24.5993
RightForeArm  -19.4742 4.50926 -0.887084
RightHand  0.933315 7.533 7.87594
LeftUpLeg  -81.099 17.2791 -24.5324
LeftLeg  45.5179 -2.81596 -2.65352
LeftFoot  -7.72523 -0.117698 5.2009
LeftToes  1.06247e-005 4.65855e-005 -8.18504e-006
89
root  -39.9936 35.7834 -27.4767 -105.134 -84.1925 146.026
RightUpLeg  -86.1465 -19.9515 34.4033
RightLeg  46.3059 0.203277 -0.106623
RightFoot  -8.14736 0.440198 -17.579
RightToes  0.000482159 0.542163 -0.142577
Spine  69.6363 -4.78636 8.0197
Spine1  4.18401 1.44016 -5.10045
HEad  -37.0948 -8.87925 6.33214
LeftShoulder1  6.61678 -24.4314 -16.8634
LeftArm  -84.383 -69.4983 31.0007
LeftForeArm  -13.0751 -10.1732 -0.495391
LeftHand  -0.25398 0.0180481 5.50724
RightShoulder  1.32216 12.6572 -0.254153
RightArm  -76.7125 49.9663 -24.2598
RightForeArm  -17.9807 4.92843 -1.20652
RightHand  1.13451 6.84715 10.243
LeftUpLeg  -81.2543 17.689 -25.1996
LeftLeg  45.4086 -3.17673 -3.03363
LeftFoot  -7.82281 -0.104178 4.92308
LeftToes  1.06247e-005 4.65855e-005 -8.18504e-006
90
root  -39.9642 35.8236 -27.4196 -106.653 -83.9244 147.539
RightUpLeg  -86.1048 -20.1136 34.6226
RightLeg  45.9469 0.444339 0.159972
RightFoot  -8.24375 0.400836 -16.7345
RightToes  0.000482159 0.542163 -0.142577
Spine  69.3675 -4.7151 8.1498
Spine1  4.34442 1.553 -5.12426
HEad  -37.1252 -8.68963 6.21919
LeftShoulder1  6.54815 -24.2128 -16.8026
LeftArm  -82.841 -69.3974 29.3166
LeftForeArm  -13.3079 -10.8892 -0.752054
LeftHand  -0.25398 0.0180481 5.50724
RightShoulder  1.35544 12.5469 0.0467146
RightArm  -77.1366 49.3526 -23.663
RightForeArm  -16.4406 6.74781 -1.09831
RightHand  1.22143 6.36865 11.5478
LeftUpLeg  -81.28 18.0619 -25.7974
LeftLeg  45.18 -3.46947 -3.32251
LeftFoot  -7.83797 -0.0955727 4.66755
LeftToes  1.06247e-005 4.65855e-005 -8.18504e-006
91
root  -39.9269 35.8767 -27.3291 -108.859 -83.8109 149.639
RightUpLeg  -85.9706 -20.4243 35.1104
RightLeg  45.4317 0.815871 0.559403
RightFoot  -8.02519 0.420542 -16.2586
RightToes  0.000482159 0.542163 -0.142577
Spine  68.9876 -4.66487 8.34248
Spine1  4.55671 1.64988 -4.9107
HEad  -36.9942 -8.44301 5.91726
LeftShoulder1  6.67068 -24.228 -17.2641
LeftArm  -80.5251 -69.0128 26.6247
LeftForeArm  -13.046 -12.2223 -1.15142
LeftHand  -0.25398 0.0180481 5.50724
RightShoulder  1.41048 12.3092 0.587409
RightArm  -77.8705 48.9572 -22.5925
RightForeArm  -14.7427 9.93151 -0.512063
RightHand  1.27279 5.96729 12.5051
LeftUpLeg  -81.1917 18.3796 -26.1722
LeftLeg  44.882 -3.64025 -3.46734
LeftFoot  -7.69381 -0.104679 4.73976
LeftToes  1.06247e-005 4.65855e-005 -8.18504e-006
92
root  -39.8781 35.9543 -27.2076 -111.239 -83.7454 151.867
RightUpLeg  -85.7285 -20.7358 35.6285
RightLeg  44.6931 1.20645 0.957085
RightFoot  -7.44386 0.52739 -16.8052
RightToes  0.000482159 0.542163 -0.142577
Spine  68.4543 -4.64633 8.49687
Spine1  4.86122 1.64199 -4.525
HEad  -36.8884 -8.10566 5.66146
LeftShoulder1  6.99859 -24.4787 -18.2894
LeftArm  -78.7432 -68.4936 24.3466
LeftForeArm  -11.9261 -13.5724 -1.54058
LeftHand  -0.25398 0.0180481 5.50724
RightShoulder  1.44888 12.129 0.983323
RightArm  -79.9072 48.7725 -21.3415
RightForeArm  -12.0422 13.5467 0.52779
RightHand  1.34844 5.78849 13.4871
LeftUpLeg  -80.9654 18.6131 -26.4579
LeftLeg  44.4057 -3.72172 -3.49162
LeftFoot  -7.41465 -0.131593 5.13719
LeftToes  1.06247e-005 4.65855e-005 -8.18504e-006
93
root  -39.8094 36.0837 -27.066 -112.664 -83.502 153.097
RightUpLeg  -85.3205 -20.9506 35.6995
RightLeg  43.6871 1.53122 1.25325
RightFoot  -6.56842 0.71833 -18.1019
RightToes  0.000482159 0.542163 -0.142577
Spine  67.8564 -4.64956 8.46183
Spine1  5.34514 1.473 -4.07284
HEad  -36.9497 -7.78039 5.62005
LeftShoulder1  7.31227 -24.689 -19.2793
LeftArm  -78.1728 -68.1518 22.4813
LeftForeArm  -10.1808 -14.4626 -1.58477
LeftHand  -0.25398 0.0180481 5.50724
RightShoulder  1.50219 12.2098 1.31457
RightArm  -82.5669 48.6191 -20.8952
RightForeArm  -8.60176 16.4507 1.86611
RightHand  1.41647 5.88497 14.0554
LeftUpLeg  -80.43 18.7774 -26.9275
LeftLeg  43.4585 -3.76492 -3.41457
LeftFoot  -6.95791 -0.175841 5.6834
LeftToes  1.06247e-005 4.65855e-005 -8.18504e-006
94
root  -39.728 36.2787 -26.8934 -113.764 -83.0512 153.824
RightUpLeg  -84.574 -21.2254 35.3281
RightLeg  42.3612 1.87582 1.52783
RightFoot  -5.4888 0.954444 -19.1846
RightToes  0.000482159 0.542163 -0.142577
Spine  67.404 -4.76477 8.37957
Spine1  5.79048 1.24694 -3.80152
HEad  -37.0518 -7.63587 5.72775
LeftShoulder1  7.50237 -24.8787 -19.8057
LeftArm  -77.0885 -67.7238 19.1736
LeftForeArm  -8.78315 -15.2583 -1.53014
LeftHand  -0.25398 0.0180481 5.50724
RightShoulder  1.55499 12.2857 1.64295
RightArm  -83.7256 48.6492 -21.3706
RightForeArm  -5.93583 18.1352 2.82916
RightHand  1.41474 5.85278 14.0794
LeftUpLeg  -79.4321 19.04 -27.5928
LeftLeg  41.9751 -3.80762 -3.27137
LeftFoot  -6.32214 -0.237284 6.276
LeftToes  1.06247e-005 4.65855e-005 -8.18504e-006
